<mxfile host="65bd71144e">
    <diagram id="0ptg_U9_BVQ5qKb9o8a2" name="Purpose">
        <mxGraphModel dx="650" dy="478" grid="1" gridSize="10" guides="1" tooltips="1" connect="1" arrows="1" fold="1" page="1" pageScale="1" pageWidth="850" pageHeight="1100" math="0" shadow="0">
            <root>
                <mxCell id="0"/>
                <mxCell id="1" parent="0"/>
                <mxCell id="3" value="" style="shape=actor;whiteSpace=wrap;html=1;" vertex="1" parent="1">
                    <mxGeometry x="300" y="310" width="40" height="60" as="geometry"/>
                </mxCell>
                <mxCell id="4" value="author" style="ellipse;shape=cloud;whiteSpace=wrap;html=1;" vertex="1" parent="1">
                    <mxGeometry x="70" y="270" width="120" height="80" as="geometry"/>
                </mxCell>
                <mxCell id="5" value="name" style="ellipse;shape=cloud;whiteSpace=wrap;html=1;" vertex="1" parent="1">
                    <mxGeometry x="120" y="180" width="120" height="80" as="geometry"/>
                </mxCell>
                <mxCell id="6" value="pages" style="ellipse;shape=cloud;whiteSpace=wrap;html=1;" vertex="1" parent="1">
                    <mxGeometry x="240" y="160" width="120" height="80" as="geometry"/>
                </mxCell>
                <mxCell id="7" value="description" style="ellipse;shape=cloud;whiteSpace=wrap;html=1;" vertex="1" parent="1">
                    <mxGeometry x="360" y="170" width="120" height="80" as="geometry"/>
                </mxCell>
                <mxCell id="8" value="price" style="ellipse;shape=cloud;whiteSpace=wrap;html=1;" vertex="1" parent="1">
                    <mxGeometry x="410" y="250" width="120" height="80" as="geometry"/>
                </mxCell>
                <mxCell id="9" value="start/end date" style="ellipse;shape=cloud;whiteSpace=wrap;html=1;" vertex="1" parent="1">
                    <mxGeometry x="290" y="230" width="120" height="80" as="geometry"/>
                </mxCell>
                <mxCell id="10" value="purchase date" style="ellipse;shape=cloud;whiteSpace=wrap;html=1;" vertex="1" parent="1">
                    <mxGeometry x="180" y="260" width="120" height="80" as="geometry"/>
                </mxCell>
            </root>
        </mxGraphModel>
    </diagram>
    <diagram id="HQ_6HAxY6BaLxT0p4B-u" name="Entity Relationship Model">
        <mxGraphModel dx="1694" dy="637" grid="1" gridSize="10" guides="1" tooltips="1" connect="1" arrows="1" fold="1" page="1" pageScale="1" pageWidth="827" pageHeight="1169" math="0" shadow="0">
            <root>
                <mxCell id="xb6l95TZsgpAUE9bPXsn-0"/>
                <mxCell id="xb6l95TZsgpAUE9bPXsn-1" parent="xb6l95TZsgpAUE9bPXsn-0"/>
                <mxCell id="dGAguOUHW2unSOJ_r4-q-20" style="edgeStyle=none;html=1;exitX=1;exitY=0.5;exitDx=0;exitDy=0;entryX=0;entryY=0.5;entryDx=0;entryDy=0;startArrow=ERone;startFill=0;endArrow=none;endFill=0;" edge="1" parent="xb6l95TZsgpAUE9bPXsn-1" source="xb6l95TZsgpAUE9bPXsn-2" target="dGAguOUHW2unSOJ_r4-q-19">
                    <mxGeometry relative="1" as="geometry"/>
                </mxCell>
                <mxCell id="ORt84meKE0mkaSoFXTaG-6" style="edgeStyle=none;html=1;exitX=1;exitY=0;exitDx=0;exitDy=0;entryX=0;entryY=1;entryDx=0;entryDy=0;startArrow=ERone;startFill=0;endArrow=ERone;endFill=0;" edge="1" parent="xb6l95TZsgpAUE9bPXsn-1" source="xb6l95TZsgpAUE9bPXsn-2" target="dGAguOUHW2unSOJ_r4-q-11">
                    <mxGeometry relative="1" as="geometry"/>
                </mxCell>
                <mxCell id="xb6l95TZsgpAUE9bPXsn-2" value="Books" style="rounded=0;whiteSpace=wrap;html=1;" vertex="1" parent="xb6l95TZsgpAUE9bPXsn-1">
                    <mxGeometry x="417" y="390" width="120" height="60" as="geometry"/>
                </mxCell>
                <mxCell id="dGAguOUHW2unSOJ_r4-q-21" style="edgeStyle=none;html=1;exitX=0;exitY=0.5;exitDx=0;exitDy=0;entryX=1;entryY=0.5;entryDx=0;entryDy=0;startArrow=ERmany;startFill=0;endArrow=none;endFill=0;" edge="1" parent="xb6l95TZsgpAUE9bPXsn-1" source="Zw6WBjHvG7yso3a4oN8J-0" target="dGAguOUHW2unSOJ_r4-q-19">
                    <mxGeometry relative="1" as="geometry"/>
                </mxCell>
                <mxCell id="dGAguOUHW2unSOJ_r4-q-23" style="edgeStyle=none;html=1;exitX=0.5;exitY=1;exitDx=0;exitDy=0;entryX=0.5;entryY=0;entryDx=0;entryDy=0;startArrow=ERone;startFill=0;endArrow=none;endFill=0;" edge="1" parent="xb6l95TZsgpAUE9bPXsn-1" source="Zw6WBjHvG7yso3a4oN8J-0" target="dGAguOUHW2unSOJ_r4-q-22">
                    <mxGeometry relative="1" as="geometry"/>
                </mxCell>
                <mxCell id="Zw6WBjHvG7yso3a4oN8J-0" value="Chapters" style="rounded=0;whiteSpace=wrap;html=1;" vertex="1" parent="xb6l95TZsgpAUE9bPXsn-1">
                    <mxGeometry x="707" y="390" width="120" height="60" as="geometry"/>
                </mxCell>
                <mxCell id="dGAguOUHW2unSOJ_r4-q-9" style="edgeStyle=none;html=1;exitX=0.5;exitY=1;exitDx=0;exitDy=0;entryX=0.5;entryY=0;entryDx=0;entryDy=0;startArrow=ERmany;startFill=0;endArrow=none;endFill=0;" edge="1" parent="xb6l95TZsgpAUE9bPXsn-1" source="Zw6WBjHvG7yso3a4oN8J-4" target="dGAguOUHW2unSOJ_r4-q-8">
                    <mxGeometry relative="1" as="geometry"/>
                </mxCell>
                <mxCell id="ORt84meKE0mkaSoFXTaG-7" style="edgeStyle=none;html=1;exitX=0.5;exitY=0;exitDx=0;exitDy=0;entryX=0.5;entryY=1;entryDx=0;entryDy=0;startArrow=ERone;startFill=0;endArrow=ERone;endFill=0;" edge="1" parent="xb6l95TZsgpAUE9bPXsn-1" source="Zw6WBjHvG7yso3a4oN8J-4" target="yeuMDYj9g-rVa3QurotR-0">
                    <mxGeometry relative="1" as="geometry"/>
                </mxCell>
                <mxCell id="ORt84meKE0mkaSoFXTaG-8" style="edgeStyle=none;html=1;exitX=1;exitY=0;exitDx=0;exitDy=0;entryX=0;entryY=1;entryDx=0;entryDy=0;startArrow=ERone;startFill=0;endArrow=ERone;endFill=0;" edge="1" parent="xb6l95TZsgpAUE9bPXsn-1" source="Zw6WBjHvG7yso3a4oN8J-4" target="yeuMDYj9g-rVa3QurotR-2">
                    <mxGeometry relative="1" as="geometry"/>
                </mxCell>
                <mxCell id="Zw6WBjHvG7yso3a4oN8J-4" value="Author" style="rounded=0;whiteSpace=wrap;html=1;" vertex="1" parent="xb6l95TZsgpAUE9bPXsn-1">
                    <mxGeometry x="417" y="200" width="120" height="60" as="geometry"/>
                </mxCell>
                <mxCell id="ORt84meKE0mkaSoFXTaG-1" style="edgeStyle=none;html=1;exitX=1;exitY=0.5;exitDx=0;exitDy=0;entryX=0;entryY=0;entryDx=0;entryDy=0;startArrow=ERone;startFill=0;endArrow=ERone;endFill=0;" edge="1" parent="xb6l95TZsgpAUE9bPXsn-1" source="dGAguOUHW2unSOJ_r4-q-7" target="xb6l95TZsgpAUE9bPXsn-2">
                    <mxGeometry relative="1" as="geometry"/>
                </mxCell>
                <mxCell id="dGAguOUHW2unSOJ_r4-q-7" value="Start Date" style="ellipse;whiteSpace=wrap;html=1;" vertex="1" parent="xb6l95TZsgpAUE9bPXsn-1">
                    <mxGeometry x="190" y="350" width="120" height="80" as="geometry"/>
                </mxCell>
                <mxCell id="dGAguOUHW2unSOJ_r4-q-10" style="edgeStyle=none;html=1;exitX=0.5;exitY=1;exitDx=0;exitDy=0;entryX=0.5;entryY=0;entryDx=0;entryDy=0;startArrow=none;startFill=0;endArrow=ERmany;endFill=0;" edge="1" parent="xb6l95TZsgpAUE9bPXsn-1" source="dGAguOUHW2unSOJ_r4-q-8" target="xb6l95TZsgpAUE9bPXsn-2">
                    <mxGeometry relative="1" as="geometry"/>
                </mxCell>
                <mxCell id="dGAguOUHW2unSOJ_r4-q-8" value="writes" style="rhombus;whiteSpace=wrap;html=1;" vertex="1" parent="xb6l95TZsgpAUE9bPXsn-1">
                    <mxGeometry x="437" y="295" width="80" height="50" as="geometry"/>
                </mxCell>
                <mxCell id="dGAguOUHW2unSOJ_r4-q-11" value="Price" style="ellipse;whiteSpace=wrap;html=1;" vertex="1" parent="xb6l95TZsgpAUE9bPXsn-1">
                    <mxGeometry x="567" y="265" width="120" height="80" as="geometry"/>
                </mxCell>
                <mxCell id="ORt84meKE0mkaSoFXTaG-2" style="edgeStyle=none;html=1;exitX=1;exitY=0.5;exitDx=0;exitDy=0;entryX=0;entryY=0.5;entryDx=0;entryDy=0;startArrow=ERone;startFill=0;endArrow=ERone;endFill=0;" edge="1" parent="xb6l95TZsgpAUE9bPXsn-1" source="dGAguOUHW2unSOJ_r4-q-12" target="xb6l95TZsgpAUE9bPXsn-2">
                    <mxGeometry relative="1" as="geometry"/>
                </mxCell>
                <mxCell id="dGAguOUHW2unSOJ_r4-q-12" value="Purchase Date" style="ellipse;whiteSpace=wrap;html=1;" vertex="1" parent="xb6l95TZsgpAUE9bPXsn-1">
                    <mxGeometry x="190" y="440" width="120" height="80" as="geometry"/>
                </mxCell>
                <mxCell id="dGAguOUHW2unSOJ_r4-q-24" style="edgeStyle=none;html=1;exitX=0.5;exitY=0;exitDx=0;exitDy=0;entryX=0.5;entryY=1;entryDx=0;entryDy=0;startArrow=ERmany;startFill=0;endArrow=none;endFill=0;" edge="1" parent="xb6l95TZsgpAUE9bPXsn-1" target="dGAguOUHW2unSOJ_r4-q-22">
                    <mxGeometry relative="1" as="geometry">
                        <mxPoint x="767" y="580" as="sourcePoint"/>
                    </mxGeometry>
                </mxCell>
                <mxCell id="dGAguOUHW2unSOJ_r4-q-19" value="contains" style="rhombus;whiteSpace=wrap;html=1;" vertex="1" parent="xb6l95TZsgpAUE9bPXsn-1">
                    <mxGeometry x="587" y="395" width="80" height="50" as="geometry"/>
                </mxCell>
                <mxCell id="dGAguOUHW2unSOJ_r4-q-22" value="contains" style="rhombus;whiteSpace=wrap;html=1;" vertex="1" parent="xb6l95TZsgpAUE9bPXsn-1">
                    <mxGeometry x="727" y="490" width="80" height="50" as="geometry"/>
                </mxCell>
                <mxCell id="ORt84meKE0mkaSoFXTaG-3" style="edgeStyle=none;html=1;exitX=1;exitY=0;exitDx=0;exitDy=0;entryX=0;entryY=1;entryDx=0;entryDy=0;startArrow=ERone;startFill=0;endArrow=ERone;endFill=0;" edge="1" parent="xb6l95TZsgpAUE9bPXsn-1" source="dGAguOUHW2unSOJ_r4-q-28" target="xb6l95TZsgpAUE9bPXsn-2">
                    <mxGeometry relative="1" as="geometry"/>
                </mxCell>
                <mxCell id="dGAguOUHW2unSOJ_r4-q-28" value="End Date" style="ellipse;whiteSpace=wrap;html=1;" vertex="1" parent="xb6l95TZsgpAUE9bPXsn-1">
                    <mxGeometry x="277" y="520" width="120" height="80" as="geometry"/>
                </mxCell>
                <mxCell id="ORt84meKE0mkaSoFXTaG-4" style="edgeStyle=none;html=1;exitX=0.5;exitY=0;exitDx=0;exitDy=0;entryX=0.5;entryY=1;entryDx=0;entryDy=0;startArrow=ERone;startFill=0;endArrow=ERone;endFill=0;" edge="1" parent="xb6l95TZsgpAUE9bPXsn-1" source="dGAguOUHW2unSOJ_r4-q-29" target="xb6l95TZsgpAUE9bPXsn-2">
                    <mxGeometry relative="1" as="geometry"/>
                </mxCell>
                <mxCell id="dGAguOUHW2unSOJ_r4-q-29" value="Description" style="ellipse;whiteSpace=wrap;html=1;" vertex="1" parent="xb6l95TZsgpAUE9bPXsn-1">
                    <mxGeometry x="417" y="510" width="120" height="80" as="geometry"/>
                </mxCell>
                <mxCell id="yeuMDYj9g-rVa3QurotR-0" value="Birthdate" style="ellipse;whiteSpace=wrap;html=1;" vertex="1" parent="xb6l95TZsgpAUE9bPXsn-1">
                    <mxGeometry x="417" y="60" width="120" height="80" as="geometry"/>
                </mxCell>
                <mxCell id="yeuMDYj9g-rVa3QurotR-2" value="Name" style="ellipse;whiteSpace=wrap;html=1;" vertex="1" parent="xb6l95TZsgpAUE9bPXsn-1">
                    <mxGeometry x="587" y="90" width="120" height="80" as="geometry"/>
                </mxCell>
                <mxCell id="yeuMDYj9g-rVa3QurotR-4" value="Pages" style="ellipse;whiteSpace=wrap;html=1;" vertex="1" parent="xb6l95TZsgpAUE9bPXsn-1">
                    <mxGeometry x="707" y="580" width="120" height="80" as="geometry"/>
                </mxCell>
                <mxCell id="ORt84meKE0mkaSoFXTaG-5" style="edgeStyle=none;html=1;exitX=0;exitY=0;exitDx=0;exitDy=0;entryX=1;entryY=1;entryDx=0;entryDy=0;startArrow=ERone;startFill=0;endArrow=ERone;endFill=0;" edge="1" parent="xb6l95TZsgpAUE9bPXsn-1" source="pJL8dDg2ekhwwePaeqgM-0" target="xb6l95TZsgpAUE9bPXsn-2">
                    <mxGeometry relative="1" as="geometry"/>
                </mxCell>
                <mxCell id="pJL8dDg2ekhwwePaeqgM-0" value="Language" style="ellipse;whiteSpace=wrap;html=1;" vertex="1" parent="xb6l95TZsgpAUE9bPXsn-1">
                    <mxGeometry x="547" y="475" width="120" height="80" as="geometry"/>
                </mxCell>
                <mxCell id="ORt84meKE0mkaSoFXTaG-0" style="edgeStyle=none;html=1;exitX=1;exitY=1;exitDx=0;exitDy=0;entryX=0.25;entryY=0;entryDx=0;entryDy=0;startArrow=ERone;startFill=0;endArrow=ERone;endFill=0;" edge="1" parent="xb6l95TZsgpAUE9bPXsn-1" source="pJL8dDg2ekhwwePaeqgM-2" target="xb6l95TZsgpAUE9bPXsn-2">
                    <mxGeometry relative="1" as="geometry"/>
                </mxCell>
                <mxCell id="pJL8dDg2ekhwwePaeqgM-2" value="Genre" style="ellipse;whiteSpace=wrap;html=1;" vertex="1" parent="xb6l95TZsgpAUE9bPXsn-1">
                    <mxGeometry x="230" y="265" width="120" height="80" as="geometry"/>
                </mxCell>
                <mxCell id="_dHpNsNcje8lNGqhTmig-2" style="edgeStyle=none;html=1;exitX=1;exitY=0.5;exitDx=0;exitDy=0;entryX=0;entryY=0.5;entryDx=0;entryDy=0;startArrow=ERone;startFill=0;endArrow=ERone;endFill=0;" edge="1" parent="xb6l95TZsgpAUE9bPXsn-1" source="_dHpNsNcje8lNGqhTmig-0" target="_dHpNsNcje8lNGqhTmig-1">
                    <mxGeometry relative="1" as="geometry"/>
                </mxCell>
                <mxCell id="_dHpNsNcje8lNGqhTmig-4" style="edgeStyle=none;html=1;exitX=0.5;exitY=1;exitDx=0;exitDy=0;entryX=0.5;entryY=0;entryDx=0;entryDy=0;startArrow=ERone;startFill=0;endArrow=ERmany;endFill=0;" edge="1" parent="xb6l95TZsgpAUE9bPXsn-1" source="_dHpNsNcje8lNGqhTmig-0" target="_dHpNsNcje8lNGqhTmig-3">
                    <mxGeometry relative="1" as="geometry"/>
                </mxCell>
                <mxCell id="_dHpNsNcje8lNGqhTmig-0" value="Library" style="rounded=0;whiteSpace=wrap;html=1;" vertex="1" parent="xb6l95TZsgpAUE9bPXsn-1">
                    <mxGeometry x="70" y="20" width="120" height="60" as="geometry"/>
                </mxCell>
                <mxCell id="_dHpNsNcje8lNGqhTmig-1" value="Adress" style="ellipse;whiteSpace=wrap;html=1;" vertex="1" parent="xb6l95TZsgpAUE9bPXsn-1">
                    <mxGeometry x="230" y="10" width="120" height="80" as="geometry"/>
                </mxCell>
                <mxCell id="_dHpNsNcje8lNGqhTmig-6" style="edgeStyle=none;html=1;exitX=1;exitY=0.5;exitDx=0;exitDy=0;entryX=0;entryY=0.5;entryDx=0;entryDy=0;startArrow=ERone;startFill=0;endArrow=ERone;endFill=0;" edge="1" parent="xb6l95TZsgpAUE9bPXsn-1" source="_dHpNsNcje8lNGqhTmig-3" target="_dHpNsNcje8lNGqhTmig-5">
                    <mxGeometry relative="1" as="geometry"/>
                </mxCell>
                <mxCell id="_dHpNsNcje8lNGqhTmig-8" style="edgeStyle=none;html=1;exitX=0.5;exitY=1;exitDx=0;exitDy=0;entryX=0.5;entryY=0;entryDx=0;entryDy=0;startArrow=ERone;startFill=0;endArrow=ERone;endFill=0;" edge="1" parent="xb6l95TZsgpAUE9bPXsn-1" source="_dHpNsNcje8lNGqhTmig-3" target="_dHpNsNcje8lNGqhTmig-7">
                    <mxGeometry relative="1" as="geometry"/>
                </mxCell>
                <mxCell id="_dHpNsNcje8lNGqhTmig-13" style="edgeStyle=none;html=1;exitX=1;exitY=1;exitDx=0;exitDy=0;entryX=0;entryY=0.5;entryDx=0;entryDy=0;startArrow=ERone;startFill=0;endArrow=none;endFill=0;" edge="1" parent="xb6l95TZsgpAUE9bPXsn-1" source="_dHpNsNcje8lNGqhTmig-3" target="_dHpNsNcje8lNGqhTmig-12">
                    <mxGeometry relative="1" as="geometry"/>
                </mxCell>
                <mxCell id="_dHpNsNcje8lNGqhTmig-3" value="Users" style="rounded=0;whiteSpace=wrap;html=1;" vertex="1" parent="xb6l95TZsgpAUE9bPXsn-1">
                    <mxGeometry x="70" y="130" width="120" height="60" as="geometry"/>
                </mxCell>
                <mxCell id="_dHpNsNcje8lNGqhTmig-5" value="Name" style="ellipse;whiteSpace=wrap;html=1;" vertex="1" parent="xb6l95TZsgpAUE9bPXsn-1">
                    <mxGeometry x="220" y="120" width="120" height="80" as="geometry"/>
                </mxCell>
                <mxCell id="_dHpNsNcje8lNGqhTmig-7" value="Adress" style="ellipse;whiteSpace=wrap;html=1;" vertex="1" parent="xb6l95TZsgpAUE9bPXsn-1">
                    <mxGeometry x="70" y="215" width="120" height="80" as="geometry"/>
                </mxCell>
                <mxCell id="_dHpNsNcje8lNGqhTmig-11" style="edgeStyle=none;html=1;exitX=1;exitY=0;exitDx=0;exitDy=0;entryX=0;entryY=0.5;entryDx=0;entryDy=0;startArrow=ERone;startFill=0;endArrow=ERone;endFill=0;" edge="1" parent="xb6l95TZsgpAUE9bPXsn-1" source="_dHpNsNcje8lNGqhTmig-9" target="_dHpNsNcje8lNGqhTmig-3">
                    <mxGeometry relative="1" as="geometry"/>
                </mxCell>
                <mxCell id="_dHpNsNcje8lNGqhTmig-9" value="Birthdate" style="ellipse;whiteSpace=wrap;html=1;" vertex="1" parent="xb6l95TZsgpAUE9bPXsn-1">
                    <mxGeometry x="-70" y="160" width="120" height="80" as="geometry"/>
                </mxCell>
                <mxCell id="_dHpNsNcje8lNGqhTmig-14" style="edgeStyle=none;html=1;exitX=1;exitY=1;exitDx=0;exitDy=0;startArrow=none;startFill=0;endArrow=ERmany;endFill=0;" edge="1" parent="xb6l95TZsgpAUE9bPXsn-1" source="_dHpNsNcje8lNGqhTmig-12" target="xb6l95TZsgpAUE9bPXsn-2">
                    <mxGeometry relative="1" as="geometry"/>
                </mxCell>
                <mxCell id="_dHpNsNcje8lNGqhTmig-12" value="borrows" style="rhombus;whiteSpace=wrap;html=1;" vertex="1" parent="xb6l95TZsgpAUE9bPXsn-1">
                    <mxGeometry x="297" y="205" width="80" height="50" as="geometry"/>
                </mxCell>
            </root>
        </mxGraphModel>
    </diagram>
    <diagram id="xi025y_-rk0xm9lImQ6y" name="UML">
        <mxGraphModel dx="650" dy="478" grid="1" gridSize="10" guides="1" tooltips="1" connect="1" arrows="1" fold="1" page="1" pageScale="1" pageWidth="827" pageHeight="1169" math="0" shadow="0">
            <root>
                <mxCell id="i8tZiJo5gSCTWDam0E1y-0"/>
                <mxCell id="i8tZiJo5gSCTWDam0E1y-1" parent="i8tZiJo5gSCTWDam0E1y-0"/>
                <mxCell id="i8tZiJo5gSCTWDam0E1y-2" value="Book" style="swimlane;fontStyle=0;childLayout=stackLayout;horizontal=1;startSize=26;fillColor=none;horizontalStack=0;resizeParent=1;resizeParentMax=0;resizeLast=0;collapsible=1;marginBottom=0;" vertex="1" parent="i8tZiJo5gSCTWDam0E1y-1">
                    <mxGeometry x="334" y="10" width="160" height="260" as="geometry"/>
                </mxCell>
                <mxCell id="i8tZiJo5gSCTWDam0E1y-3" value="+ bookID: int" style="text;strokeColor=none;fillColor=none;align=left;verticalAlign=top;spacingLeft=4;spacingRight=4;overflow=hidden;rotatable=0;points=[[0,0.5],[1,0.5]];portConstraint=eastwest;fontStyle=4" vertex="1" parent="i8tZiJo5gSCTWDam0E1y-2">
                    <mxGeometry y="26" width="160" height="26" as="geometry"/>
                </mxCell>
                <mxCell id="i8tZiJo5gSCTWDam0E1y-4" value="+ bookPrice: int" style="text;strokeColor=none;fillColor=none;align=left;verticalAlign=top;spacingLeft=4;spacingRight=4;overflow=hidden;rotatable=0;points=[[0,0.5],[1,0.5]];portConstraint=eastwest;" vertex="1" parent="i8tZiJo5gSCTWDam0E1y-2">
                    <mxGeometry y="52" width="160" height="26" as="geometry"/>
                </mxCell>
                <mxCell id="xZX8HomZVrwg4YWmdEjA-1" value="+ bookDescription: string" style="text;strokeColor=none;fillColor=none;align=left;verticalAlign=top;spacingLeft=4;spacingRight=4;overflow=hidden;rotatable=0;points=[[0,0.5],[1,0.5]];portConstraint=eastwest;" vertex="1" parent="i8tZiJo5gSCTWDam0E1y-2">
                    <mxGeometry y="78" width="160" height="26" as="geometry"/>
                </mxCell>
                <mxCell id="i8tZiJo5gSCTWDam0E1y-5" value="+ bookStartDate: date" style="text;strokeColor=none;fillColor=none;align=left;verticalAlign=top;spacingLeft=4;spacingRight=4;overflow=hidden;rotatable=0;points=[[0,0.5],[1,0.5]];portConstraint=eastwest;" vertex="1" parent="i8tZiJo5gSCTWDam0E1y-2">
                    <mxGeometry y="104" width="160" height="26" as="geometry"/>
                </mxCell>
                <mxCell id="J2RO0jDuWY69wb3Q40it-1" value="+ bookEndDate: date" style="text;strokeColor=none;fillColor=none;align=left;verticalAlign=top;spacingLeft=4;spacingRight=4;overflow=hidden;rotatable=0;points=[[0,0.5],[1,0.5]];portConstraint=eastwest;" vertex="1" parent="i8tZiJo5gSCTWDam0E1y-2">
                    <mxGeometry y="130" width="160" height="26" as="geometry"/>
                </mxCell>
                <mxCell id="4uCL6jtJ0CvmZno2ILM9-0" value="+ bookPurchaseDate: date" style="text;strokeColor=none;fillColor=none;align=left;verticalAlign=top;spacingLeft=4;spacingRight=4;overflow=hidden;rotatable=0;points=[[0,0.5],[1,0.5]];portConstraint=eastwest;" vertex="1" parent="i8tZiJo5gSCTWDam0E1y-2">
                    <mxGeometry y="156" width="160" height="26" as="geometry"/>
                </mxCell>
                <mxCell id="r6b8QuEvvtCNZGqv4hEa-0" value="+ bookGenre: string" style="text;strokeColor=none;fillColor=none;align=left;verticalAlign=top;spacingLeft=4;spacingRight=4;overflow=hidden;rotatable=0;points=[[0,0.5],[1,0.5]];portConstraint=eastwest;" vertex="1" parent="i8tZiJo5gSCTWDam0E1y-2">
                    <mxGeometry y="182" width="160" height="26" as="geometry"/>
                </mxCell>
                <mxCell id="vxeg0sTPNFU7fuQFxQap-0" value="+ bookLanguage: string" style="text;strokeColor=none;fillColor=none;align=left;verticalAlign=top;spacingLeft=4;spacingRight=4;overflow=hidden;rotatable=0;points=[[0,0.5],[1,0.5]];portConstraint=eastwest;" vertex="1" parent="i8tZiJo5gSCTWDam0E1y-2">
                    <mxGeometry y="208" width="160" height="26" as="geometry"/>
                </mxCell>
                <mxCell id="GrLbypb8jbdt5epIeS6Q-0" value="+ fkAuthor: int" style="text;strokeColor=none;fillColor=none;align=left;verticalAlign=top;spacingLeft=4;spacingRight=4;overflow=hidden;rotatable=0;points=[[0,0.5],[1,0.5]];portConstraint=eastwest;" vertex="1" parent="i8tZiJo5gSCTWDam0E1y-2">
                    <mxGeometry y="234" width="160" height="26" as="geometry"/>
                </mxCell>
                <mxCell id="fHrMlbi5fgcP5bJ_oGDe-0" value="Author" style="swimlane;fontStyle=0;childLayout=stackLayout;horizontal=1;startSize=26;fillColor=none;horizontalStack=0;resizeParent=1;resizeParentMax=0;resizeLast=0;collapsible=1;marginBottom=0;" vertex="1" parent="i8tZiJo5gSCTWDam0E1y-1">
                    <mxGeometry x="350" y="290" width="140" height="104" as="geometry"/>
                </mxCell>
                <mxCell id="fHrMlbi5fgcP5bJ_oGDe-1" value="+ authorID: int" style="text;strokeColor=none;fillColor=none;align=left;verticalAlign=top;spacingLeft=4;spacingRight=4;overflow=hidden;rotatable=0;points=[[0,0.5],[1,0.5]];portConstraint=eastwest;fontStyle=4" vertex="1" parent="fHrMlbi5fgcP5bJ_oGDe-0">
                    <mxGeometry y="26" width="140" height="26" as="geometry"/>
                </mxCell>
                <mxCell id="fHrMlbi5fgcP5bJ_oGDe-2" value="+ authorName: string" style="text;strokeColor=none;fillColor=none;align=left;verticalAlign=top;spacingLeft=4;spacingRight=4;overflow=hidden;rotatable=0;points=[[0,0.5],[1,0.5]];portConstraint=eastwest;" vertex="1" parent="fHrMlbi5fgcP5bJ_oGDe-0">
                    <mxGeometry y="52" width="140" height="26" as="geometry"/>
                </mxCell>
                <mxCell id="fHrMlbi5fgcP5bJ_oGDe-3" value="+ authorBirthday: date" style="text;strokeColor=none;fillColor=none;align=left;verticalAlign=top;spacingLeft=4;spacingRight=4;overflow=hidden;rotatable=0;points=[[0,0.5],[1,0.5]];portConstraint=eastwest;" vertex="1" parent="fHrMlbi5fgcP5bJ_oGDe-0">
                    <mxGeometry y="78" width="140" height="26" as="geometry"/>
                </mxCell>
                <mxCell id="H47yN-0UH8WRU62T85FK-0" value="Chapter" style="swimlane;fontStyle=0;childLayout=stackLayout;horizontal=1;startSize=26;fillColor=none;horizontalStack=0;resizeParent=1;resizeParentMax=0;resizeLast=0;collapsible=1;marginBottom=0;" vertex="1" parent="i8tZiJo5gSCTWDam0E1y-1">
                    <mxGeometry x="510" y="10" width="140" height="78" as="geometry"/>
                </mxCell>
                <mxCell id="H47yN-0UH8WRU62T85FK-1" value="+ chapterID: int" style="text;strokeColor=none;fillColor=none;align=left;verticalAlign=top;spacingLeft=4;spacingRight=4;overflow=hidden;rotatable=0;points=[[0,0.5],[1,0.5]];portConstraint=eastwest;fontStyle=4" vertex="1" parent="H47yN-0UH8WRU62T85FK-0">
                    <mxGeometry y="26" width="140" height="26" as="geometry"/>
                </mxCell>
                <mxCell id="H47yN-0UH8WRU62T85FK-2" value="+ pages: int" style="text;strokeColor=none;fillColor=none;align=left;verticalAlign=top;spacingLeft=4;spacingRight=4;overflow=hidden;rotatable=0;points=[[0,0.5],[1,0.5]];portConstraint=eastwest;" vertex="1" parent="H47yN-0UH8WRU62T85FK-0">
                    <mxGeometry y="52" width="140" height="26" as="geometry"/>
                </mxCell>
                <mxCell id="wBcKRk-5f_FqlpPwQY4--0" style="edgeStyle=none;html=1;exitX=1;exitY=0.5;exitDx=0;exitDy=0;entryX=1;entryY=0.5;entryDx=0;entryDy=0;startArrow=none;startFill=0;endArrow=none;endFill=0;" edge="1" parent="i8tZiJo5gSCTWDam0E1y-1" source="fHrMlbi5fgcP5bJ_oGDe-1" target="GrLbypb8jbdt5epIeS6Q-0">
                    <mxGeometry relative="1" as="geometry">
                        <Array as="points">
                            <mxPoint x="510" y="329"/>
                            <mxPoint x="510" y="257"/>
                        </Array>
                    </mxGeometry>
                </mxCell>
                <mxCell id="wBcKRk-5f_FqlpPwQY4--1" value="User" style="swimlane;fontStyle=0;childLayout=stackLayout;horizontal=1;startSize=26;fillColor=none;horizontalStack=0;resizeParent=1;resizeParentMax=0;resizeLast=0;collapsible=1;marginBottom=0;" vertex="1" parent="i8tZiJo5gSCTWDam0E1y-1">
                    <mxGeometry x="10" y="10" width="140" height="104" as="geometry"/>
                </mxCell>
                <mxCell id="wBcKRk-5f_FqlpPwQY4--2" value="+ userID: int" style="text;strokeColor=none;fillColor=none;align=left;verticalAlign=top;spacingLeft=4;spacingRight=4;overflow=hidden;rotatable=0;points=[[0,0.5],[1,0.5]];portConstraint=eastwest;fontStyle=4" vertex="1" parent="wBcKRk-5f_FqlpPwQY4--1">
                    <mxGeometry y="26" width="140" height="26" as="geometry"/>
                </mxCell>
                <mxCell id="wBcKRk-5f_FqlpPwQY4--3" value="+ userName: string" style="text;strokeColor=none;fillColor=none;align=left;verticalAlign=top;spacingLeft=4;spacingRight=4;overflow=hidden;rotatable=0;points=[[0,0.5],[1,0.5]];portConstraint=eastwest;" vertex="1" parent="wBcKRk-5f_FqlpPwQY4--1">
                    <mxGeometry y="52" width="140" height="26" as="geometry"/>
                </mxCell>
                <mxCell id="wBcKRk-5f_FqlpPwQY4--4" value="+ userBirthdate: date" style="text;strokeColor=none;fillColor=none;align=left;verticalAlign=top;spacingLeft=4;spacingRight=4;overflow=hidden;rotatable=0;points=[[0,0.5],[1,0.5]];portConstraint=eastwest;" vertex="1" parent="wBcKRk-5f_FqlpPwQY4--1">
                    <mxGeometry y="78" width="140" height="26" as="geometry"/>
                </mxCell>
                <mxCell id="wBcKRk-5f_FqlpPwQY4--5" value="Library" style="swimlane;fontStyle=0;childLayout=stackLayout;horizontal=1;startSize=26;fillColor=none;horizontalStack=0;resizeParent=1;resizeParentMax=0;resizeLast=0;collapsible=1;marginBottom=0;" vertex="1" parent="i8tZiJo5gSCTWDam0E1y-1">
                    <mxGeometry x="170" y="10" width="140" height="130" as="geometry"/>
                </mxCell>
                <mxCell id="wBcKRk-5f_FqlpPwQY4--6" value="+ libraryID: int" style="text;strokeColor=none;fillColor=none;align=left;verticalAlign=top;spacingLeft=4;spacingRight=4;overflow=hidden;rotatable=0;points=[[0,0.5],[1,0.5]];portConstraint=eastwest;fontStyle=4" vertex="1" parent="wBcKRk-5f_FqlpPwQY4--5">
                    <mxGeometry y="26" width="140" height="26" as="geometry"/>
                </mxCell>
                <mxCell id="wBcKRk-5f_FqlpPwQY4--7" value="+ libraryName: string" style="text;strokeColor=none;fillColor=none;align=left;verticalAlign=top;spacingLeft=4;spacingRight=4;overflow=hidden;rotatable=0;points=[[0,0.5],[1,0.5]];portConstraint=eastwest;" vertex="1" parent="wBcKRk-5f_FqlpPwQY4--5">
                    <mxGeometry y="52" width="140" height="26" as="geometry"/>
                </mxCell>
                <mxCell id="wBcKRk-5f_FqlpPwQY4--8" value="+ libraryAdress: string" style="text;strokeColor=none;fillColor=none;align=left;verticalAlign=top;spacingLeft=4;spacingRight=4;overflow=hidden;rotatable=0;points=[[0,0.5],[1,0.5]];portConstraint=eastwest;" vertex="1" parent="wBcKRk-5f_FqlpPwQY4--5">
                    <mxGeometry y="78" width="140" height="26" as="geometry"/>
                </mxCell>
                <mxCell id="jeFS-uNfRgZ9lPxvQvBr-13" value="+ fkBook: int" style="text;strokeColor=none;fillColor=none;align=left;verticalAlign=top;spacingLeft=4;spacingRight=4;overflow=hidden;rotatable=0;points=[[0,0.5],[1,0.5]];portConstraint=eastwest;" vertex="1" parent="wBcKRk-5f_FqlpPwQY4--5">
                    <mxGeometry y="104" width="140" height="26" as="geometry"/>
                </mxCell>
                <mxCell id="jeFS-uNfRgZ9lPxvQvBr-14" style="edgeStyle=none;html=1;exitX=1;exitY=0.5;exitDx=0;exitDy=0;entryX=0;entryY=0.5;entryDx=0;entryDy=0;startArrow=none;startFill=0;endArrow=none;endFill=0;" edge="1" parent="i8tZiJo5gSCTWDam0E1y-1" source="jeFS-uNfRgZ9lPxvQvBr-13" target="i8tZiJo5gSCTWDam0E1y-3">
                    <mxGeometry relative="1" as="geometry">
                        <Array as="points">
                            <mxPoint x="320" y="127"/>
                            <mxPoint x="330" y="49"/>
                        </Array>
                    </mxGeometry>
                </mxCell>
            </root>
        </mxGraphModel>
    </diagram>
</mxfile>